<svg width="115" height="120" viewBox="0 0 115 120" fill="none" xmlns="http://www.w3.org/2000/svg">
<g filter="url(#filter0_d_1_574)">
<path d="M57.5 81.0714C64.0214 81.0714 69.5811 78.7929 74.1791 74.2357C78.7771 69.6786 81.0746 64.1 81.0714 57.5C81.0714 56.8714 81.051 56.2429 81.0101 55.6143C80.9693 54.9857 80.8719 54.3571 80.7179 53.7286C79.8536 57.4214 77.9286 60.4669 74.9429 62.8649C71.9571 65.2629 68.4607 66.4603 64.4536 66.4571C59.7393 66.4571 55.7714 64.8464 52.55 61.625C49.3286 58.4036 47.7179 54.4357 47.7179 49.7214C47.7179 46.1071 48.7393 42.8653 50.7821 39.9959C52.825 37.1264 55.4964 35.104 58.7964 33.9286H57.5C50.9 33.9286 45.3214 36.2276 40.7643 40.8256C36.2071 45.4236 33.9286 50.9817 33.9286 57.5C33.9286 64.1 36.2071 69.6786 40.7643 74.2357C45.3214 78.7929 50.9 81.0714 57.5 81.0714ZM62.3321 55.1429L69.2857 50.075L76.1214 55.1429L73.4107 47.1286L80.3643 42.0607L71.8786 42.1786L69.2857 33.9286L66.6929 42.1786L58.0893 42.0607L65.0429 47.1286L62.3321 55.1429ZM41.7071 95.2143H29.2143C26.6214 95.2143 24.401 94.2903 22.553 92.4423C20.705 90.5943 19.7826 88.3754 19.7857 85.7857V73.2929L10.8286 64.2179C8.94286 62.4107 8 60.1714 8 57.5C8 54.8286 8.94286 52.5893 10.8286 50.7821L19.7857 41.7071V29.2143C19.7857 26.6214 20.7097 24.401 22.5577 22.553C24.4057 20.705 26.6246 19.7826 29.2143 19.7857H41.7071L50.7821 10.8286C52.5893 8.94286 54.8286 8 57.5 8C60.1714 8 62.4107 8.94286 64.2179 10.8286L73.2929 19.7857H85.7857C88.3786 19.7857 90.599 20.7097 92.447 22.5577C94.295 24.4057 95.2174 26.6246 95.2143 29.2143V41.7071L104.171 50.7821C106.057 52.5893 107 54.8286 107 57.5C107 60.1714 106.057 62.4107 104.171 64.2179L95.2143 73.2929V85.7857C95.2143 88.3786 94.2903 90.599 92.4423 92.447C90.5943 94.295 88.3754 95.2174 85.7857 95.2143H73.2929L64.2179 104.171C62.4107 106.057 60.7607 112 58.0893 112C58.0893 112 52.5893 106.057 50.7821 104.171L41.7071 95.2143Z" fill="white"/>
</g>
<defs>
<filter id="filter0_d_1_574" x="0" y="0" width="115" height="120" filterUnits="userSpaceOnUse" color-interpolation-filters="sRGB">
<feFlood flood-opacity="0" result="BackgroundImageFix"/>
<feColorMatrix in="SourceAlpha" type="matrix" values="0 0 0 0 0 0 0 0 0 0 0 0 0 0 0 0 0 0 127 0" result="hardAlpha"/>
<feOffset/>
<feGaussianBlur stdDeviation="4"/>
<feComposite in2="hardAlpha" operator="out"/>
<feColorMatrix type="matrix" values="0 0 0 0 1 0 0 0 0 1 0 0 0 0 1 0 0 0 0.7 0"/>
<feBlend mode="normal" in2="BackgroundImageFix" result="effect1_dropShadow_1_574"/>
<feBlend mode="normal" in="SourceGraphic" in2="effect1_dropShadow_1_574" result="shape"/>
</filter>
</defs>
</svg>
